<svg width="28" height="28" viewBox="0 0 28 28" fill="none" xmlns="http://www.w3.org/2000/svg">
<g id="science_FILL0_wght200_GRAD0_opsz24">
<path id="Vector" d="M5.83331 23.3334C5.33666 23.3334 4.98365 23.1117 4.77427 22.6682C4.56491 22.2247 4.61429 21.8108 4.92241 21.4264L11.6666 13.2373V5.83341H10.0512C9.88597 5.83341 9.74743 5.77743 9.63562 5.66547C9.52382 5.55351 9.46791 5.41479 9.46791 5.24929C9.46791 5.08378 9.52382 4.94532 9.63562 4.8339C9.74743 4.72247 9.88597 4.66675 10.0512 4.66675H17.9487C18.114 4.66675 18.2525 4.72273 18.3643 4.83469C18.4761 4.94663 18.532 5.08536 18.532 5.25087C18.532 5.41636 18.4761 5.55482 18.3643 5.66626C18.2525 5.7777 18.114 5.83341 17.9487 5.83341H16.3333V13.2373L23.0775 21.4264C23.3857 21.8108 23.435 22.2247 23.2257 22.6682C23.0163 23.1117 22.6633 23.3334 22.1666 23.3334H5.83331ZM5.83331 22.1667H22.1666L15.1666 13.6501V5.83341H12.8333V13.6501L5.83331 22.1667Z" fill="#252525"/>
</g>
</svg>
