<svg width="29" height="28" viewBox="0 0 29 28" fill="none" xmlns="http://www.w3.org/2000/svg">
<path d="M5.16669 21.8975V20.7308H23.8334V21.8975H5.16669ZM5.16669 7.26924V6.10254H23.8334V7.26924H5.16669ZM7.05129 17.5C6.51433 17.5 6.06599 17.3201 5.70627 16.9604C5.34655 16.6007 5.16669 16.1524 5.16669 15.6154V12.3846C5.16669 11.8476 5.34655 11.3993 5.70627 11.0396C6.06599 10.6799 6.51433 10.5 7.05129 10.5H21.9487C22.4857 10.5 22.934 10.6799 23.2938 11.0396C23.6535 11.3993 23.8334 11.8476 23.8334 12.3846V15.6154C23.8334 16.1524 23.6535 16.6007 23.2938 16.9604C22.934 17.3201 22.4857 17.5 21.9487 17.5H7.05129Z" fill="#252525"/>
</svg>
