<svg width="28" height="28" viewBox="0 0 28 28" fill="none" xmlns="http://www.w3.org/2000/svg">
<path d="M14 13.282C13.0375 13.282 12.2136 12.9393 11.5282 12.2539C10.8427 11.5685 10.5 10.7445 10.5 9.78201C10.5 8.81949 10.8427 7.99552 11.5282 7.31011C12.2136 6.62469 13.0375 6.28198 14 6.28198C14.9625 6.28198 15.7865 6.62469 16.4719 7.31011C17.1573 7.99552 17.5 8.81949 17.5 9.78201C17.5 10.7445 17.1573 11.5685 16.4719 12.2539C15.7865 12.9393 14.9625 13.282 14 13.282ZM5.83337 21.7179V19.7974C5.83337 19.3158 5.9736 18.8652 6.25405 18.4456C6.53449 18.0261 6.91179 17.7004 7.38595 17.4685C8.48679 16.9405 9.58839 16.5445 10.6907 16.2806C11.7931 16.0166 12.8962 15.8846 14 15.8846C15.1039 15.8846 16.207 16.0166 17.3093 16.2806C18.4117 16.5445 19.5133 16.9405 20.6141 17.4685C21.0883 17.7004 21.4656 18.0261 21.746 18.4456C22.0265 18.8652 22.1667 19.3158 22.1667 19.7974V21.7179H5.83337Z" fill="#252525"/>
</svg>
