<svg width="28" height="28" viewBox="0 0 28 28" fill="none" xmlns="http://www.w3.org/2000/svg">
<g id="person_FILL0_wght200_GRAD0_opsz24">
<path id="Vector" d="M14 13.282C13.0375 13.282 12.2136 12.9393 11.5282 12.2539C10.8427 11.5685 10.5 10.7445 10.5 9.78201C10.5 8.81949 10.8427 7.99552 11.5282 7.31011C12.2136 6.62469 13.0375 6.28198 14 6.28198C14.9625 6.28198 15.7865 6.62469 16.4719 7.31011C17.1573 7.99552 17.5 8.81949 17.5 9.78201C17.5 10.7445 17.1573 11.5685 16.4719 12.2539C15.7865 12.9393 14.9625 13.282 14 13.282ZM5.83337 21.7179V19.7974C5.83337 19.3158 5.9736 18.8652 6.25405 18.4456C6.53449 18.0261 6.91179 17.7004 7.38595 17.4685C8.48679 16.9405 9.58839 16.5445 10.6907 16.2806C11.7931 16.0166 12.8962 15.8846 14 15.8846C15.1039 15.8846 16.207 16.0166 17.3093 16.2806C18.4117 16.5445 19.5133 16.9405 20.6141 17.4685C21.0883 17.7004 21.4656 18.0261 21.746 18.4456C22.0265 18.8652 22.1667 19.3158 22.1667 19.7974V21.7179H5.83337ZM7.00004 20.5512H21V19.7974C21 19.5386 20.9167 19.2956 20.7499 19.0682C20.5831 18.8409 20.3524 18.6487 20.0577 18.4916C19.0975 18.0264 18.1074 17.6701 17.0875 17.4225C16.0676 17.175 15.0385 17.0512 14 17.0512C12.9616 17.0512 11.9325 17.175 10.9126 17.4225C9.89267 17.6701 8.9026 18.0264 7.94236 18.4916C7.6477 18.6487 7.41698 18.8409 7.2502 19.0682C7.08343 19.2956 7.00004 19.5386 7.00004 19.7974V20.5512ZM14 12.1153C14.6417 12.1153 15.191 11.8869 15.648 11.4299C16.1049 10.973 16.3334 10.4237 16.3334 9.78201C16.3334 9.14035 16.1049 8.59104 15.648 8.1341C15.191 7.67715 14.6417 7.44868 14 7.44868C13.3584 7.44868 12.8091 7.67715 12.3521 8.1341C11.8952 8.59104 11.6667 9.14035 11.6667 9.78201C11.6667 10.4237 11.8952 10.973 12.3521 11.4299C12.8091 11.8869 13.3584 12.1153 14 12.1153Z" fill="#333333"/>
</g>
</svg>
