<svg width="40" height="40" viewBox="0 0 40 40" fill="none" xmlns="http://www.w3.org/2000/svg">
<rect x="5" y="5" width="30" height="30" rx="15" fill="#CCCCCC"/>
<mask id="mask0_8576_49754" style="mask-type:alpha" maskUnits="userSpaceOnUse" x="0" y="0" width="40" height="40">
<rect width="40" height="40" fill="#D9D9D9"/>
</mask>
<g mask="url(#mask0_8576_49754)">
<path d="M19.2949 25.4786H20.7372V17.1175L24.3654 20.7457L25.3376 19.7735L20.032 14.4893L14.6945 19.7735L15.6667 20.7457L19.2949 17.1175V25.4786ZM20.0056 35C17.9356 35 15.9912 34.6064 14.1723 33.8192C12.3534 33.032 10.7639 31.959 9.40387 30.6003C8.04385 29.2415 6.96986 27.6535 6.18192 25.8363C5.39397 24.0191 5 22.0755 5 20.0056C5 17.9313 5.3936 15.9812 6.18079 14.1552C6.96801 12.3291 8.041 10.7407 9.39975 9.38996C10.7585 8.03921 12.3465 6.96986 14.1637 6.18192C15.9809 5.39397 17.9245 5 19.9944 5C22.0687 5 24.0188 5.3936 25.8448 6.18079C27.6709 6.96801 29.2593 8.03637 30.61 9.38587C31.9608 10.7354 33.0301 12.3223 33.8181 14.1466C34.606 15.9709 35 17.9202 35 19.9944C35 22.0644 34.6064 24.0088 33.8192 25.8277C33.032 27.6466 31.9636 29.2361 30.6141 30.5961C29.2646 31.9562 27.6777 33.0301 25.8534 33.8181C24.0291 34.606 22.0798 35 20.0056 35ZM20 33.5898C23.7849 33.5898 26.9961 32.2699 29.6335 29.6303C32.271 26.9907 33.5898 23.7806 33.5898 20C33.5898 16.2151 32.271 13.0039 29.6335 10.3665C26.9961 7.72899 23.7849 6.41025 20 6.41025C16.2194 6.41025 13.0092 7.72899 10.3697 10.3665C7.73006 13.0039 6.41025 16.2151 6.41025 20C6.41025 23.7806 7.73006 26.9907 10.3697 29.6303C13.0092 32.2699 16.2194 33.5898 20 33.5898Z" fill="#252525"/>
</g>
</svg>
