<svg width="20" height="20" viewBox="0 0 20 20" fill="none" xmlns="http://www.w3.org/2000/svg">
<mask id="mask0_2599_10554" style="mask-type:alpha" maskUnits="userSpaceOnUse" x="0" y="0" width="20" height="20">
<rect width="20" height="20" fill="#D9D9D9"/>
</mask>
<g mask="url(#mask0_2599_10554)">
<path d="M14.5008 17.7913C13.8645 17.7913 13.3234 17.5685 12.8773 17.1229C12.4313 16.6773 12.2083 16.1362 12.2083 15.4997C12.2083 15.3817 12.2165 15.274 12.2331 15.1764C12.2496 15.0789 12.2745 14.9692 12.3076 14.8474L7.06079 11.6343C6.86849 11.8672 6.63633 12.0349 6.36431 12.1375C6.09231 12.24 5.80418 12.2913 5.4999 12.2913C4.86333 12.2913 4.32224 12.0686 3.87665 11.6232C3.43105 11.1778 3.20825 10.6369 3.20825 10.0006C3.20825 9.36429 3.43105 8.82311 3.87665 8.37707C4.32224 7.93103 4.86333 7.70801 5.4999 7.70801C5.80011 7.70801 6.08723 7.76276 6.36127 7.87226C6.63531 7.98177 6.86849 8.14604 7.06079 8.36505L12.3076 5.1519C12.2745 5.03011 12.2496 4.92043 12.2331 4.82286C12.2165 4.72531 12.2083 4.61757 12.2083 4.49965C12.2083 3.86308 12.431 3.322 12.8764 2.8764C13.3218 2.43081 13.8627 2.20801 14.499 2.20801C15.1353 2.20801 15.6764 2.43072 16.1225 2.87613C16.5685 3.32155 16.7915 3.86241 16.7915 4.49872C16.7915 5.13502 16.5687 5.6762 16.1231 6.12224C15.6776 6.56828 15.1365 6.7913 14.4999 6.7913C14.1956 6.7913 13.9075 6.74002 13.6355 6.63747C13.3635 6.5349 13.1313 6.36716 12.939 6.13426L7.69219 9.3474C7.72531 9.4692 7.75015 9.57869 7.76671 9.67588C7.78327 9.77306 7.79154 9.88043 7.79154 9.99799C7.79154 10.1156 7.78327 10.2235 7.76671 10.3218C7.75015 10.4201 7.72531 10.5301 7.69219 10.6519L12.939 13.8651C13.1313 13.6183 13.3635 13.4471 13.6355 13.3514C13.9075 13.2558 14.1956 13.208 14.4999 13.208C15.1365 13.208 15.6776 13.4307 16.1231 13.8761C16.5687 14.3216 16.7915 14.8624 16.7915 15.4987C16.7915 16.135 16.5688 16.6762 16.1234 17.1222C15.678 17.5683 15.1371 17.7913 14.5008 17.7913ZM14.4999 5.70801C14.8366 5.70801 15.1222 5.59081 15.3566 5.3564C15.5911 5.12199 15.7083 4.8364 15.7083 4.49965C15.7083 4.1629 15.5911 3.87732 15.3566 3.6429C15.1222 3.4085 14.8366 3.2913 14.4999 3.2913C14.1631 3.2913 13.8776 3.4085 13.6431 3.6429C13.4087 3.87732 13.2915 4.1629 13.2915 4.49965C13.2915 4.8364 13.4087 5.12199 13.6431 5.3564C13.8776 5.59081 14.1631 5.70801 14.4999 5.70801ZM5.4999 11.208C5.83665 11.208 6.12223 11.0908 6.35665 10.8564C6.59105 10.622 6.70825 10.3364 6.70825 9.99965C6.70825 9.6629 6.59105 9.37732 6.35665 9.1429C6.12223 8.9085 5.83665 8.7913 5.4999 8.7913C5.16315 8.7913 4.87756 8.9085 4.64315 9.1429C4.40875 9.37732 4.29154 9.6629 4.29154 9.99965C4.29154 10.3364 4.40875 10.622 4.64315 10.8564C4.87756 11.0908 5.16315 11.208 5.4999 11.208ZM14.4999 16.708C14.8366 16.708 15.1222 16.5908 15.3566 16.3564C15.5911 16.122 15.7083 15.8364 15.7083 15.4997C15.7083 15.1629 15.5911 14.8773 15.3566 14.6429C15.1222 14.4085 14.8366 14.2913 14.4999 14.2913C14.1631 14.2913 13.8776 14.4085 13.6431 14.6429C13.4087 14.8773 13.2915 15.1629 13.2915 15.4997C13.2915 15.8364 13.4087 16.122 13.6431 16.3564C13.8776 16.5908 14.1631 16.708 14.4999 16.708Z" fill="white"/>
</g>
</svg>
