<svg width="32" height="32" viewBox="0 0 32 32" fill="none" xmlns="http://www.w3.org/2000/svg">
<mask id="mask0_980_16947" style="mask-type:alpha" maskUnits="userSpaceOnUse" x="0" y="0" width="32" height="32">
<rect width="32" height="32" fill="#D9D9D9"/>
</mask>
<g mask="url(#mask0_980_16947)">
<path d="M14.8882 22.6667H9.33268C7.48824 22.6667 5.91602 22.0167 4.61602 20.7167C3.31602 19.4167 2.66602 17.8445 2.66602 16C2.66602 14.1556 3.31602 12.5833 4.61602 11.2833C5.91602 9.98334 7.48824 9.33334 9.33268 9.33334H14.8882V11.5555H9.33268C8.0981 11.5555 7.04872 11.9871 6.18452 12.8503C5.32032 13.7135 4.88822 14.7617 4.88822 15.9948C4.88822 17.2279 5.32032 18.2778 6.18452 19.1445C7.04872 20.0111 8.0981 20.4445 9.33268 20.4445H14.8882V22.6667ZM10.7771 17.1111V14.8889H21.2216V17.1111H10.7771ZM17.1104 22.6667V20.4445H22.666C23.9006 20.4445 24.95 20.0129 25.8142 19.1497C26.6784 18.2865 27.1105 17.2384 27.1105 16.0052C27.1105 14.7721 26.6784 13.7222 25.8142 12.8555C24.95 11.9889 23.9006 11.5555 22.666 11.5555H17.1104V9.33334H22.666C24.5105 9.33334 26.0827 9.98334 27.3827 11.2833C28.6827 12.5833 29.3327 14.1556 29.3327 16C29.3327 17.8445 28.6827 19.4167 27.3827 20.7167C26.0827 22.0167 24.5105 22.6667 22.666 22.6667H17.1104Z" fill="#1C1B1F"/>
</g>
</svg>
