<svg width="33" height="32" viewBox="0 0 33 32" fill="none" xmlns="http://www.w3.org/2000/svg">
<rect x="0.5" width="32" height="32" rx="4" fill="#381F1E"/>
<path d="M29.0714 32H3.92857C2.035 32 0.5 30.465 0.5 28.5714V3.42857C0.5 1.535 2.035 0 3.92857 0H29.0714C30.965 0 32.5 1.535 32.5 3.42857V28.5714C32.5 30.465 30.965 32 29.0714 32ZM22.2334 6.91836C20.4775 6.11564 18.5664 5.71429 16.5 5.71429C14.4336 5.71429 12.5225 6.11564 10.7666 6.91836C9.01064 7.72107 7.62243 8.81257 6.60207 10.1929C5.58164 11.5732 5.07143 13.0788 5.07143 14.7097C5.07143 16.2896 5.554 17.7528 6.51914 19.0991C7.48429 20.4454 8.78743 21.5264 10.4286 22.3418C9.70579 24.7711 9.31886 26.1515 9.26786 26.4828V26.5337C9.26786 26.5677 9.27636 26.6059 9.29336 26.6484C9.31036 26.6909 9.33586 26.7249 9.36993 26.7504C9.45493 26.7928 9.54421 26.7971 9.63779 26.7631C9.83336 26.7376 11.4447 25.6758 14.4719 23.5777C15.1692 23.6711 15.8452 23.7179 16.5 23.7179C18.5749 23.7179 20.4881 23.3165 22.2398 22.5138C23.9915 21.7111 25.3776 20.6175 26.3979 19.2329C27.4184 17.8484 27.9286 16.3406 27.9286 14.7097C27.9286 13.0788 27.4184 11.5732 26.3979 10.1929C25.3776 8.81257 23.9894 7.72107 22.2334 6.91836Z" fill="#F4E44F"/>
</svg>
