<svg width="24" height="25" viewBox="0 0 24 25" fill="none" xmlns="http://www.w3.org/2000/svg">
<mask id="mask0_2537_18065" style="mask-type:alpha" maskUnits="userSpaceOnUse" x="0" y="0" width="24" height="25">
<rect y="0.849609" width="24" height="24" fill="#D9D9D9"/>
</mask>
<g mask="url(#mask0_2537_18065)">
<path d="M5 21.8496C4.45 21.8496 3.97917 21.6538 3.5875 21.2621C3.19583 20.8704 3 20.3996 3 19.8496V5.84961C3 5.29961 3.19583 4.82878 3.5875 4.43711C3.97917 4.04544 4.45 3.84961 5 3.84961H14V5.84961H5V19.8496H19V10.8496H21V19.8496C21 20.3996 20.8042 20.8704 20.4125 21.2621C20.0208 21.6538 19.55 21.8496 19 21.8496H5ZM17 9.84961V7.84961H15V5.84961H17V3.84961H19V5.84961H21V7.84961H19V9.84961H17ZM6 17.8496H18L14.25 12.8496L11.25 16.8496L9 13.8496L6 17.8496Z" fill="#333333"/>
</g>
</svg>
