<svg width="24" height="25" viewBox="0 0 24 25" fill="none" xmlns="http://www.w3.org/2000/svg">
<mask id="mask0_2537_18071" style="mask-type:alpha" maskUnits="userSpaceOnUse" x="0" y="0" width="24" height="25">
<rect y="0.233398" width="24" height="24" fill="#D9D9D9"/>
</mask>
<g mask="url(#mask0_2537_18071)">
<path d="M17 20.2334V17.2334H14V15.2334H17V12.2334H19V15.2334H22V17.2334H19V20.2334H17ZM11 17.2334H7C5.61667 17.2334 4.4375 16.7459 3.4625 15.7709C2.4875 14.7959 2 13.6167 2 12.2334C2 10.8501 2.4875 9.6709 3.4625 8.6959C4.4375 7.7209 5.61667 7.2334 7 7.2334H11V9.2334H7C6.16667 9.2334 5.45833 9.52506 4.875 10.1084C4.29167 10.6917 4 11.4001 4 12.2334C4 13.0667 4.29167 13.7751 4.875 14.3584C5.45833 14.9417 6.16667 15.2334 7 15.2334H11V17.2334ZM8 13.2334V11.2334H16V13.2334H8ZM22 12.2334H20C20 11.4001 19.7083 10.6917 19.125 10.1084C18.5417 9.52506 17.8333 9.2334 17 9.2334H13V7.2334H17C18.3833 7.2334 19.5625 7.7209 20.5375 8.6959C21.5125 9.6709 22 10.8501 22 12.2334Z" fill="white"/>
</g>
</svg>
