<svg width="24" height="24" viewBox="0 0 24 24" fill="none" xmlns="http://www.w3.org/2000/svg">
<mask id="mask0_916_12369" style="mask-type:alpha" maskUnits="userSpaceOnUse" x="0" y="0" width="24" height="24">
<rect x="0.5" y="0.5" width="23" height="23" fill="#D9D9D9" stroke="black"/>
</mask>
<g mask="url(#mask0_916_12369)">
<path d="M18.9389 12.0286C18.3392 12.8155 17.5161 13.7344 16.4638 14.7868C15.4101 15.8404 14.0634 17.1107 12.4222 18.5984C12.4221 18.5985 12.422 18.5986 12.4219 18.5987L12 18.9799L11.5795 18.6C11.5792 18.5997 11.5789 18.5994 11.5785 18.5991C9.94997 17.1112 8.60583 15.8404 7.54479 14.7857C6.48619 13.7334 5.66038 12.8149 5.06114 12.0286C4.46066 11.2406 4.05908 10.5504 3.83659 9.95552L3.83659 9.95552C3.61086 9.35199 3.5 8.75094 3.5 8.1499C3.5 7.00469 3.88355 6.06576 4.6497 5.29961C5.41586 4.53345 6.35478 4.1499 7.5 4.1499C8.28952 4.1499 9.02767 4.35067 9.72284 4.75666C10.4188 5.16314 11.0413 5.76127 11.5855 6.56798L12 7.18239L12.4145 6.56798C12.9587 5.76127 13.5812 5.16314 14.2772 4.75666C14.9723 4.35067 15.7105 4.1499 16.5 4.1499C17.6452 4.1499 18.5841 4.53345 19.3503 5.29961C20.1165 6.06576 20.5 7.00469 20.5 8.1499C20.5 8.75094 20.3891 9.35199 20.1634 9.95552C19.9409 10.5504 19.5393 11.2406 18.9389 12.0286Z" fill="#F7585C" stroke="#252525"/>
</g>
</svg>
