<svg width="40" height="40" viewBox="0 0 40 40" fill="none" xmlns="http://www.w3.org/2000/svg">
<rect width="40" height="40" rx="8" fill="#F2F2F2"/>
<mask id="mask0_2437_13673" style="mask-type:alpha" maskUnits="userSpaceOnUse" x="8" y="8" width="24" height="25">
<rect x="8" y="8.2334" width="24" height="24" fill="#D9D9D9"/>
</mask>
<g mask="url(#mask0_2437_13673)">
<path d="M25 28.2334V25.2334H22V23.2334H25V20.2334H27V23.2334H30V25.2334H27V28.2334H25ZM19 25.2334H15C13.6167 25.2334 12.4375 24.7459 11.4625 23.7709C10.4875 22.7959 10 21.6167 10 20.2334C10 18.8501 10.4875 17.6709 11.4625 16.6959C12.4375 15.7209 13.6167 15.2334 15 15.2334H19V17.2334H15C14.1667 17.2334 13.4583 17.5251 12.875 18.1084C12.2917 18.6917 12 19.4001 12 20.2334C12 21.0667 12.2917 21.7751 12.875 22.3584C13.4583 22.9417 14.1667 23.2334 15 23.2334H19V25.2334ZM16 21.2334V19.2334H24V21.2334H16ZM30 20.2334H28C28 19.4001 27.7083 18.6917 27.125 18.1084C26.5417 17.5251 25.8333 17.2334 25 17.2334H21V15.2334H25C26.3833 15.2334 27.5625 15.7209 28.5375 16.6959C29.5125 17.6709 30 18.8501 30 20.2334Z" fill="#333333"/>
</g>
</svg>
