<svg width="24" height="24" viewBox="0 0 24 24" fill="none" xmlns="http://www.w3.org/2000/svg">
<g id="upload">
<mask id="mask0_980_15900" style="mask-type:alpha" maskUnits="userSpaceOnUse" x="0" y="0" width="24" height="24">
<rect id="Bounding box" width="24" height="24" fill="#D9D9D9"/>
</mask>
<g mask="url(#mask0_980_15900)">
<path id="upload_2" d="M6.61537 19C6.15512 19 5.77083 18.8458 5.4625 18.5375C5.15417 18.2291 5 17.8448 5 17.3846V13H6V17.3846C6 17.5384 6.0641 17.6794 6.1923 17.8077C6.32052 17.9359 6.46154 18 6.61537 18H17.3846C17.5385 18 17.6795 17.9359 17.8077 17.8077C17.9359 17.6794 18 17.5384 18 17.3846V13H19V17.3846C19 17.8448 18.8458 18.2291 18.5375 18.5375C18.2292 18.8458 17.8449 19 17.3846 19H6.61537ZM11.5 15.2307V6.58073L9.16923 8.91151L8.46152 8.19228L12 4.65381L15.5385 8.19228L14.8308 8.91151L12.5 6.58073V15.2307H11.5Z" fill="#999999"/>
</g>
</g>
</svg>
