<svg width="20" height="20" viewBox="0 0 20 20" fill="none" xmlns="http://www.w3.org/2000/svg">
<path d="M8.36656 14.4961L16.2101 6.65257L14.9807 5.42311L8.36656 12.0372L5.04156 8.7122L3.81209 9.94166L8.36656 14.4961ZM2.19224 19.9166C1.60291 19.9166 1.10409 19.7125 0.695752 19.3041C0.287419 18.8958 0.083252 18.397 0.083252 17.8077V2.19234C0.083252 1.60302 0.287419 1.10419 0.695752 0.695859C1.10409 0.287525 1.60291 0.0833588 2.19224 0.0833588H17.8075C18.3969 0.0833588 18.8957 0.287525 19.304 0.695859C19.7124 1.10419 19.9165 1.60302 19.9165 2.19234V17.8077C19.9165 18.397 19.7124 18.8958 19.304 19.3041C18.8957 19.7125 18.3969 19.9166 17.8075 19.9166H2.19224Z" fill="#F7585C"/>
</svg>
