<svg width="20" height="20" viewBox="0 0 20 20" fill="none" xmlns="http://www.w3.org/2000/svg">
<path d="M2.55135 19.3333C2.01439 19.3333 1.56605 19.1535 1.20633 18.7937C0.846609 18.434 0.666748 17.9857 0.666748 17.4487V2.55127C0.666748 2.01431 0.846609 1.56597 1.20633 1.20625C1.56605 0.846527 2.01439 0.666666 2.55135 0.666666H17.4488C17.9858 0.666666 18.4341 0.846527 18.7938 1.20625C19.1536 1.56597 19.3334 2.01431 19.3334 2.55127V17.4487C19.3334 17.9857 19.1536 18.434 18.7938 18.7937C18.4341 19.1535 17.9858 19.3333 17.4488 19.3333H2.55135ZM2.55135 18.1667H17.4488C17.6283 18.1667 17.7928 18.0919 17.9424 17.9423C18.092 17.7927 18.1667 17.6282 18.1667 17.4487V2.55127C18.1667 2.3718 18.092 2.20727 17.9424 2.05768C17.7928 1.90812 17.6283 1.83333 17.4488 1.83333H2.55135C2.37188 1.83333 2.20735 1.90812 2.05776 2.05768C1.9082 2.20727 1.83341 2.3718 1.83341 2.55127V17.4487C1.83341 17.6282 1.9082 17.7927 2.05776 17.9423C2.20735 18.0919 2.37188 18.1667 2.55135 18.1667Z" fill="#333333"/>
</svg>
