<svg width="20" height="20" viewBox="0 0 20 20" fill="none" xmlns="http://www.w3.org/2000/svg">
<g id="credit_card_off">
<mask id="mask0_2599_10791" style="mask-type:alpha" maskUnits="userSpaceOnUse" x="0" y="0" width="20" height="20">
<rect id="Bounding box" width="20" height="20" fill="#D9D9D9"/>
</mask>
<g mask="url(#mask0_2599_10791)">
<path id="credit_card_off_2" d="M16.273 14.5328L15.6278 13.8876V9.76768H11.5079L9.48008 7.7399H15.6278V6.36288C15.6278 6.2977 15.6068 6.24416 15.5649 6.20226C15.523 6.16035 15.4695 6.1394 15.4043 6.1394H7.87958L6.93552 5.19534H15.4043C15.7312 5.19534 16.0075 5.3082 16.2332 5.53394C16.459 5.75967 16.5718 6.03598 16.5718 6.36288V13.7591C16.5718 13.9099 16.5488 14.0496 16.5027 14.1781C16.4566 14.3066 16.38 14.4248 16.273 14.5328ZM8.33489 9.76768H4.29876V13.7591C4.29876 13.815 4.32204 13.8662 4.36859 13.9127C4.41515 13.9593 4.46637 13.9826 4.52224 13.9826H12.5498L8.33489 9.76768ZM16.0649 17.4796L13.4938 14.9266H4.52224C4.19534 14.9266 3.91903 14.8137 3.69329 14.5878C3.46756 14.3619 3.35469 14.0854 3.35469 13.7583V6.3577C3.35469 6.03062 3.46579 5.75511 3.68797 5.5312C3.91015 5.30728 4.18218 5.19532 4.50408 5.19532H5.09762L6.15062 6.24834H4.52224C4.46637 6.24834 4.41515 6.27161 4.36859 6.31816C4.32204 6.36473 4.29876 6.41594 4.29876 6.47181V7.7399H6.3071L2.71228 4.12694L3.37982 3.47754L16.7143 16.812L16.0649 17.4796Z" fill="#1C1B1F"/>
</g>
</g>
</svg>
