<svg width="20" height="20" viewBox="0 0 20 20" fill="none" xmlns="http://www.w3.org/2000/svg">
<g id="how_to_reg">
<mask id="mask0_2599_10785" style="mask-type:alpha" maskUnits="userSpaceOnUse" x="0" y="0" width="20" height="20">
<rect id="Bounding box" width="20" height="20" fill="#D9D9D9"/>
</mask>
<g mask="url(#mask0_2599_10785)">
<path id="how_to_reg_2" d="M2.3927 15.4232V13.9874C2.3927 13.6423 2.47283 13.3565 2.63308 13.13C2.79333 12.9035 3.00219 12.7107 3.25968 12.5515C4.00968 12.107 4.75753 11.7801 5.50324 11.5707C6.24896 11.3613 7.07321 11.2566 7.97599 11.2566C8.29544 11.2566 8.59966 11.2735 8.88866 11.3071C9.17764 11.3408 9.47064 11.3912 9.76764 11.4585L8.84941 12.3976C8.64108 12.3698 8.47227 12.3533 8.34299 12.3479C8.21371 12.3426 8.09138 12.3399 7.97599 12.3399C7.23988 12.3399 6.53208 12.4291 5.8526 12.6075C5.17311 12.786 4.50003 13.0696 3.83337 13.4585C3.70052 13.5314 3.60774 13.61 3.55503 13.6942C3.50234 13.7784 3.47599 13.8761 3.47599 13.9874V14.3399H9.27406L10.3365 15.4232H2.3927ZM12.9375 15.7117L10.4135 13.1669L11.1667 12.3928L12.9375 14.1637L16.8334 10.2887L17.6074 11.0419L12.9375 15.7117ZM7.97599 9.74375C7.25726 9.74375 6.64702 9.49289 6.14528 8.99117C5.64356 8.48943 5.3927 7.8792 5.3927 7.16046C5.3927 6.44171 5.64356 5.83147 6.14528 5.32975C6.64702 4.82802 7.25726 4.57715 7.97599 4.57715C8.69473 4.57715 9.30496 4.82802 9.8067 5.32975C10.3084 5.83147 10.5593 6.44171 10.5593 7.16046C10.5593 7.8792 10.3084 8.48943 9.8067 8.99117C9.30496 9.49289 8.69473 9.74375 7.97599 9.74375ZM7.98041 8.66046C8.39413 8.66046 8.74683 8.51315 9.03849 8.21852C9.33016 7.92391 9.47599 7.56975 9.47599 7.15602C9.47599 6.74232 9.32869 6.38963 9.03408 6.09796C8.73945 5.80629 8.38528 5.66046 7.97158 5.66046C7.55785 5.66046 7.20516 5.80777 6.91349 6.10238C6.62183 6.397 6.47599 6.75117 6.47599 7.16488C6.47599 7.5786 6.6233 7.93129 6.91791 8.22296C7.21253 8.51463 7.5667 8.66046 7.98041 8.66046Z" fill="#1C1B1F"/>
</g>
</g>
</svg>
