<svg width="20" height="20" viewBox="0 0 20 20" fill="none" xmlns="http://www.w3.org/2000/svg">
<g id="event_available">
<mask id="mask0_2599_10814" style="mask-type:alpha" maskUnits="userSpaceOnUse" x="0" y="0" width="20" height="20">
<rect id="Bounding box" width="20" height="20" fill="#D9D9D9"/>
</mask>
<g mask="url(#mask0_2599_10814)">
<path id="event_available_2" d="M9.12506 15.3619L6.58021 12.8171L7.33821 12.0591L9.12506 13.8459L12.6619 10.2882L13.4199 11.0463L9.12506 15.3619ZM4.7565 17.5831C4.38139 17.5831 4.06432 17.4511 3.80529 17.1873C3.54626 16.9234 3.41675 16.6087 3.41675 16.2433V5.75621C3.41675 5.39082 3.54626 5.07618 3.80529 4.81229C4.06432 4.5484 4.38139 4.41646 4.7565 4.41646H6.57702V2.32031H7.69237V4.41646H12.3398V2.32031H13.4231V4.41646H15.2436C15.6187 4.41646 15.9358 4.5484 16.1948 4.81229C16.4539 5.07618 16.5834 5.39082 16.5834 5.75621V16.2433C16.5834 16.6087 16.4539 16.9234 16.1948 17.1873C15.9358 17.4511 15.6187 17.5831 15.2436 17.5831H4.7565ZM4.7565 16.4998H15.2436C15.3077 16.4998 15.3665 16.4731 15.4199 16.4196C15.4734 16.3662 15.5001 16.3074 15.5001 16.2433V9.25621H4.50006V16.2433C4.50006 16.3074 4.52677 16.3662 4.58019 16.4196C4.63362 16.4731 4.69239 16.4998 4.7565 16.4998ZM4.50006 8.1729H15.5001V5.75621C15.5001 5.6921 15.4734 5.63333 15.4199 5.5799C15.3665 5.52648 15.3077 5.49977 15.2436 5.49977H4.7565C4.69239 5.49977 4.63362 5.52648 4.58019 5.5799C4.52677 5.63333 4.50006 5.6921 4.50006 5.75621V8.1729Z" fill="#1C1B1F"/>
</g>
</g>
</svg>
