<svg width="20" height="20" viewBox="0 0 20 20" fill="none" xmlns="http://www.w3.org/2000/svg">
<g id="group">
<mask id="mask0_2599_10779" style="mask-type:alpha" maskUnits="userSpaceOnUse" x="0" y="0" width="20" height="20">
<rect id="Bounding box" width="20" height="20" fill="#D9D9D9"/>
</mask>
<g mask="url(#mask0_2599_10779)">
<path id="group_2" d="M2.66516 15.4227V13.9868C2.66516 13.6715 2.74129 13.3932 2.89354 13.1518C3.04577 12.9104 3.25849 12.7099 3.5317 12.5503C4.21255 12.149 4.92904 11.833 5.68116 11.6023C6.4333 11.3715 7.28907 11.2561 8.24847 11.2561C9.20788 11.2561 10.0636 11.3715 10.8158 11.6023C11.5679 11.833 12.2844 12.149 12.9652 12.5503C13.2385 12.7099 13.4512 12.9104 13.6034 13.1518C13.7556 13.3932 13.8318 13.6715 13.8318 13.9868V15.4227H2.66516ZM15.3318 15.4227V14.0509C15.3318 13.5317 15.2326 13.0555 15.0341 12.6224C14.8357 12.1893 14.5738 11.837 14.2485 11.5654C14.6406 11.6765 15.0286 11.8125 15.4127 11.9733C15.7968 12.134 16.1752 12.3266 16.5481 12.551C16.7842 12.6834 16.9744 12.8859 17.1186 13.1584C17.2628 13.4309 17.335 13.7284 17.335 14.0509V15.4227H15.3318ZM8.24847 9.74323C7.52974 9.74323 6.9195 9.49237 6.41777 8.99065C5.91603 8.48891 5.66516 7.87867 5.66516 7.15994C5.66516 6.44119 5.91603 5.83095 6.41777 5.32923C6.9195 4.82749 7.52974 4.57662 8.24847 4.57662C8.96721 4.57662 9.57745 4.82749 10.0792 5.32923C10.5809 5.83095 10.8318 6.44119 10.8318 7.15994C10.8318 7.87867 10.5809 8.48891 10.0792 8.99065C9.57745 9.49237 8.96721 9.74323 8.24847 9.74323ZM14.1106 7.15994C14.1106 7.87867 13.8597 8.48891 13.358 8.99065C12.8562 9.49237 12.246 9.74323 11.5273 9.74323C11.4749 9.74323 11.4455 9.74644 11.4391 9.75285C11.4327 9.75927 11.4034 9.7566 11.351 9.74485C11.6519 9.39142 11.8906 8.99825 12.067 8.56533C12.2435 8.13242 12.3318 7.66362 12.3318 7.15894C12.3318 6.65427 12.2418 6.18746 12.0617 5.7585C11.8817 5.32956 11.6448 4.93506 11.351 4.57502C11.3873 4.57395 11.4167 4.57395 11.4391 4.57502C11.4616 4.57609 11.4909 4.57662 11.5273 4.57662C12.246 4.57662 12.8562 4.82749 13.358 5.32923C13.8597 5.83095 14.1106 6.44119 14.1106 7.15994ZM3.74847 14.3394H12.7485V13.9868C12.7485 13.8756 12.7221 13.7779 12.6694 13.6937C12.6167 13.6094 12.5239 13.5309 12.3911 13.458C11.8024 13.1044 11.1657 12.8295 10.4808 12.6335C9.79602 12.4374 9.05189 12.3394 8.24847 12.3394C7.44506 12.3394 6.70093 12.4339 6.0161 12.623C5.33128 12.8122 4.69453 13.0905 4.10585 13.458C3.973 13.5293 3.88022 13.6056 3.82752 13.6869C3.77482 13.7683 3.74847 13.8676 3.74847 13.9849V14.3394ZM8.25289 8.65994C8.66661 8.65994 9.01931 8.51262 9.31097 8.218C9.60264 7.92339 9.74847 7.56922 9.74847 7.1555C9.74847 6.74179 9.60117 6.3891 9.30656 6.09744C9.01193 5.80577 8.65776 5.65994 8.24406 5.65994C7.83033 5.65994 7.47764 5.80724 7.18597 6.10185C6.89431 6.39648 6.74847 6.75065 6.74847 7.16435C6.74847 7.57808 6.89578 7.93077 7.19039 8.22244C7.48501 8.5141 7.83918 8.65994 8.25289 8.65994Z" fill="#1C1B1F"/>
</g>
</g>
</svg>
