<svg width="20" height="20" viewBox="0 0 20 20" fill="none" xmlns="http://www.w3.org/2000/svg">
<g id="location_on">
<mask id="mask0_2599_10820" style="mask-type:alpha" maskUnits="userSpaceOnUse" x="0" y="0" width="20" height="20">
<rect id="Bounding box" width="20" height="20" fill="#D9D9D9"/>
</mask>
<g mask="url(#mask0_2599_10820)">
<path id="location_on_2" d="M10.0058 9.88812C10.3758 9.88812 10.6907 9.75636 10.9503 9.49285C11.2099 9.22935 11.3397 8.91258 11.3397 8.54253C11.3397 8.17251 11.2079 7.85769 10.9444 7.59808C10.6809 7.33846 10.3642 7.20866 9.99413 7.20866C9.62409 7.20866 9.30926 7.34041 9.04965 7.60391C8.79004 7.86742 8.66023 8.18419 8.66023 8.55422C8.66023 8.92426 8.79198 9.23909 9.05548 9.4987C9.319 9.75831 9.63577 9.88812 10.0058 9.88812ZM9.99996 16.1574C11.5886 14.7674 12.8258 13.4127 13.7115 12.0933C14.5972 10.7738 15.04 9.61035 15.04 8.60287C15.04 7.1392 14.5643 5.92152 13.6129 4.94983C12.6616 3.97813 11.4572 3.49228 9.99996 3.49228C8.5427 3.49228 7.33837 3.97813 6.38698 4.94983C5.43559 5.92152 4.9599 7.1392 4.9599 8.60287C4.9599 9.61035 5.40274 10.7738 6.28842 12.0933C7.17411 13.4127 8.41129 14.7674 9.99996 16.1574ZM9.99996 17.5916C7.95866 15.8562 6.42777 14.2409 5.4073 12.746C4.38682 11.251 3.87659 9.86996 3.87659 8.60287C3.87659 6.90203 4.44657 5.44585 5.58652 4.23431C6.72647 3.02276 8.19414 2.41699 9.98955 2.41699C11.7849 2.41699 13.2561 3.02276 14.403 4.23431C15.5499 5.44585 16.1233 6.90203 16.1233 8.60287C16.1233 9.86996 15.6167 11.2479 14.6033 12.7367C13.59 14.2254 12.0555 15.8438 9.99996 17.5916Z" fill="#1C1B1F"/>
</g>
</g>
</svg>
